<?xml version="1.0" standalone="no"?>
<!DOCTYPE svg PUBLIC "-//W3C//DTD SVG 20010904//EN"
 "http://www.w3.org/TR/2001/REC-SVG-20010904/DTD/svg10.dtd">
<svg version="1.0" xmlns="http://www.w3.org/2000/svg"
 width="700.000000pt" height="700.000000pt" viewBox="0 0 700.000000 700.000000"
 preserveAspectRatio="xMidYMid meet">
<metadata>
Created by potrace 1.14, written by Peter Selinger 2001-2017
</metadata>
<g transform="translate(0.000000,700.000000) scale(0.100000,-0.100000)"
fill="#000000" stroke="none">
<path d="M740 3427 l0 -2833 1775 0 c1254 0 1775 3 1777 10 0 6 1 578 2 1271
l1 1260 1055 0 1055 0 1 308 1 307 -1059 0 -1058 0 0 939 0 940 1051 0 c578
-1 1054 2 1057 6 4 4 7 146 8 316 l0 309 -2833 0 -2833 0 0 -2833z m2800 1262
l0 -939 -1025 0 -1025 0 0 939 0 940 1025 -1 1025 -1 0 -938z m0 -2509 l0
-955 -1025 0 -1025 0 -2 944 c-2 662 0 948 8 955 7 8 318 11 1027 11 l1017 0
0 -955z"/>
</g>
</svg>
